<svg width="140.117" height="32" viewBox="0 0 140.117 32" fill="none" xmlns="http://www.w3.org/2000/svg">
<g transform="translate(0, 0.446)">
<path d="M14.9551 0C16.2413 0.227696 17.0912 1.30748 17.5312 2.47363C18.5158 2.19992 19.4573 2.32981 19.6758 3.45898C19.7967 3.56295 21.3749 2.72905 21.6641 2.61523C22.9996 2.08291 25.3927 1.33274 24.793 3.75391L23.5068 5.59766C24.5623 5.51457 25.5564 5.00982 26.5996 5.41602C27.6797 5.83776 29.1784 8.28127 27.8799 9.19824L27.2637 9.46582C28.2853 10.0043 28.8277 10.9822 29.5508 11.8223C30.2585 12.6439 31.0893 13.4165 31.6709 14.3428L31.6582 14.3398C32.6121 15.8569 31.332 16.6942 29.9072 16.7988C30.0212 17.6264 30.7257 18.2909 30.8428 19.1338C31.0212 20.42 30.4548 20.7924 29.6855 21.6201C29.5686 21.7463 29.5075 21.9405 29.3906 22.0605C28.8583 22.6144 27.9442 22.4912 27.2549 22.6143C27.1656 22.7035 27.6706 23.2855 27.7383 23.4209C28.3042 24.5286 27.4427 25.9568 26.252 26.1445C25.9227 26.1968 25.5439 26.0428 25.3008 26.3721C25.1994 27.4058 25.7254 28.2457 25.0088 29.1748C24.4857 29.8517 23.6641 29.8767 23.0518 29.2861C22.8087 29.0523 22.2084 27.8367 21.8545 27.9287C21.5837 27.9964 20.8176 29.6863 20.5684 30.0371C20.1099 30.6832 19.4696 31.0364 18.6758 31.0918C17.0203 31.2087 16.1251 30.3752 15.6143 28.8799C15.0788 29.4707 14.6137 29.9663 13.749 29.957C12.5367 29.9416 11.8565 29.0921 11.8564 27.9229C10.8318 28.289 9.89943 28.938 8.83789 29.2119C7.10239 29.6581 6.0531 29.126 6.76074 27.209L7.29004 26.4482C6.57928 26.3498 5.91773 26.3654 5.22852 26.1162C4.35463 25.7993 2.88081 24.6732 2.68066 23.7285C2.41604 22.4639 3.7294 21.2298 4.85254 20.9189C4.78793 19.8329 3.90233 20.0139 3.18848 19.7617C2.20992 19.414 1.24311 18.0448 0.673828 17.1924C0.409215 16.7985 0.144773 16.4446 -0.00292969 15.9893V15.2539C0.338642 14.34 1.06819 13.9981 1.98828 13.8535C1.65595 12.7488 0.990498 11.521 1.39355 10.3486C1.73511 9.3609 3.1723 9.17591 4.01855 8.84668C4.11995 8.53597 3.93222 8.2621 3.98145 7.92676C4.08922 7.19759 5.31399 6.36969 6.01562 6.36328C6.63719 6.35713 7.13263 7.01944 7.58496 7.36719C7.64651 5.98552 7.31764 4.49842 7.43457 3.12598C7.57016 1.56638 8.73284 1.81607 9.68359 2.5791C9.92348 2.77285 10.9076 3.90075 11.0869 3.88672C12.1486 2.8497 12.4995 0.664347 14.0166 0.128906L14.5117 0H14.9551ZM22.3623 16.208C20.5191 16.048 19.4785 17.2021 19.377 18.9746C19.2296 21.5253 21.6978 22.8607 23.7871 21.4668V21.4639C23.8825 21.1992 23.5804 20.4486 23.4111 20.2793C23.208 20.0762 22.5587 20.5371 22.2109 20.5586C20.8297 20.6412 20.6666 18.1155 21.7188 17.7061C22.4173 17.4353 23.0149 18.0384 23.3564 17.8691C23.5625 17.7639 23.7657 17.1397 23.7227 16.9121C23.6455 16.5092 22.7316 16.2388 22.3623 16.208ZM10.6748 16.4727C10.2101 16.1065 9.68065 16.1986 9.15137 16.374C9.06845 16.4878 9.06894 16.6235 9.05664 16.7588C8.9582 17.9281 8.95205 20.1708 9.05664 21.334C9.08741 21.6694 9.12742 21.8026 9.48438 21.8672C9.98602 21.9564 10.8322 21.9955 10.8291 21.3311C10.8229 20.568 10.6533 19.6722 10.6133 18.8906C10.6071 18.7648 10.604 18.7244 10.7178 18.6445C11.124 19.3154 11.8657 20.0977 12.1826 20.79C12.6101 21.7191 12.1676 22.0086 13.5947 21.8887C14.0071 21.8517 14.0413 21.8175 14.0752 21.4082V21.4053C14.1983 19.9067 13.9895 18.2263 14.1279 16.7031C14.0264 16.4016 13.9952 16.3182 13.666 16.2812C13.2875 16.2412 12.4447 16.1588 12.377 16.6143C12.2817 17.2603 12.4476 18.1154 12.377 18.7861C11.7554 18.263 11.2564 16.9312 10.6748 16.4727ZM19.4883 16.6602C19.5191 16.1001 18.0567 16.2081 17.8105 16.4297C17.5399 16.6768 17.2235 18.0226 17.0205 18.4199C16.6143 18.0599 16.423 16.5865 16.0322 16.3525C15.8722 16.2541 15.0568 16.2442 14.8506 16.2842C14.4198 16.3673 14.6413 16.7772 14.749 17.0449C15.0353 17.7619 15.8908 18.9588 16.0293 19.5957C16.137 20.0973 15.9185 21.5162 16.2139 21.7686C16.4082 21.9346 17.6416 21.9526 17.7646 21.7588C17.8969 20.8328 17.5648 20.2267 18.0137 19.3008H18.0107C18.2846 18.7346 19.4635 17.1618 19.4883 16.6602ZM10.6689 9.6748C9.90579 9.73019 9.0289 10.0873 8.75195 10.8535C8.44428 11.7089 8.67773 12.718 9.55762 13.0996C9.92073 13.2565 11.7147 13.4784 11.167 14.1523C10.6622 14.7796 9.33596 13.934 8.98828 14.1094C8.61941 14.2944 8.69677 15.2412 9.1582 15.4873C10.2076 16.0503 12.7763 15.8381 13.0225 14.3857C13.207 13.2965 12.8932 12.6471 11.8809 12.2471C11.5293 12.1086 9.79505 11.8684 10.5303 11.2285C11.0995 10.7334 12.1237 11.4773 12.4531 11.3115C12.65 11.2131 12.8012 10.4504 12.709 10.2441C12.5028 9.78879 11.1246 9.64102 10.6689 9.6748ZM18.6045 9.95215C18.3768 9.66289 17.1551 9.67831 16.9551 9.99219L16.0264 14.5156L15.0625 10.0996C14.9579 9.67495 13.6599 9.73676 13.5029 9.89062C13.3555 10.0385 13.4847 10.4845 13.5186 10.6875C13.7832 12.2414 14.2811 13.8539 14.6318 15.3955C14.8749 15.8017 16.3742 15.7527 16.8389 15.6973C17.1064 15.6664 17.2848 15.5461 17.3955 15.2939C17.5585 14.9186 17.6906 14.1649 17.8105 13.7217C18.0783 12.7432 18.457 11.5243 18.6201 10.5488C18.654 10.3581 18.7398 10.1245 18.6045 9.95215ZM22.2725 9.88672C21.9971 9.74549 20.2865 9.74266 20.0146 9.88086C19.8671 9.95771 19.7346 10.1391 19.6914 10.2959C19.4391 11.8129 18.6849 13.4628 18.4541 14.9521C18.3833 15.4106 18.3864 15.6167 18.9062 15.6875C19.1032 15.7152 19.7468 15.7279 19.916 15.6787C20.362 15.5493 20.1867 14.8411 20.4082 14.5488C20.4893 14.4967 21.398 14.4902 21.5557 14.5117C22.1311 14.5886 21.8483 15.4263 22.3438 15.6387C22.5501 15.7248 23.4877 15.7429 23.6328 15.6016C23.7128 15.5216 23.7315 15.3461 23.71 15.2354C23.3099 13.7121 23.0702 12.1331 22.6455 10.6191C22.5717 10.3607 22.537 10.0251 22.2725 9.88672ZM21.0762 10.9023C21.1895 10.8935 21.1895 11.0867 21.2109 11.1699C21.2756 11.4346 21.6509 13.2441 21.5801 13.3271H21.584C21.4147 13.3979 20.676 13.478 20.6299 13.2842L21.0762 10.9023Z" fill="#F3F3F3"/>
</g>
<g transform="translate(38, 0)">
<path d="M0 0.0161895L0.0552348 32L1.04756 31.999L1.0466 0.0161895H0Z" fill="#F3F3F3"/>
<path opacity="0.5" d="M97.8856 11.4088C96.4028 11.8279 94.7086 11.2793 94.5029 9.60133H91.9336C91.9507 13.3202 95.6524 14.7086 98.8617 13.8058C101.266 13.1297 101.931 10.5118 101.143 8.34141C100.282 5.96726 97.717 6.08821 95.7695 5.34825C93.1792 4.36355 95.2486 1.64085 97.579 2.87983C98.0913 3.15219 98.3837 3.90643 98.4522 3.90643H101.26C101.034 2.5808 100.369 1.30088 99.135 0.66377C98.5141 0.342837 97.8047 0.281888 97.1675 0.0161895H95.9305C95.5057 0.235224 95.0039 0.236176 94.5467 0.392358C91.2184 1.52943 91.2079 6.42628 94.383 7.77573C95.46 8.2338 97.3447 8.40141 98.2465 8.9528C99.2769 9.58229 99.095 11.0679 97.8856 11.4098V11.4088Z" fill="#F3F3F3"/>
<path opacity="0.5" d="M12.1631 17.6961C9.97941 17.7885 8.00524 18.9627 7.46717 21.1768C7.18243 22.3501 7.19576 27.0155 7.46717 28.2059C8.50902 32.7838 15.9552 32.9047 17.2733 28.5821C17.8142 26.8079 17.8142 22.0254 17.0809 20.3264C16.2609 18.4265 14.1306 17.6123 12.1631 17.6951V17.6961ZM14.8991 27.4488C14.4201 29.7649 10.2384 29.7382 9.90512 27.1984C9.79275 26.3422 9.77561 22.8186 9.93941 22.0292C10.0965 21.2683 10.9108 20.4778 11.6803 20.3493C13.0668 20.1178 14.7248 20.6093 14.9324 22.1853C15.0467 23.051 15.0639 26.6517 14.8982 27.4498L14.8991 27.4488Z" fill="#F3F3F3"/>
<path opacity="0.5" d="M20.4616 17.8104V31.1915C20.4616 31.4086 20.9416 31.2372 21.0759 31.2343C21.7263 31.22 22.3815 31.2543 23.031 31.2391V25.7347H27.4088V23.172H23.031V20.2302H28.7411V17.6675H20.6045C20.594 17.6675 20.4616 17.7999 20.4616 17.8094V17.8104Z" fill="#F3F3F3"/>
<path d="M39.2348 0.513303C38.6834 0.291411 38.1139 0.257128 37.592 0.0161895H36.0693C35.5265 0.268555 34.9236 0.291411 34.358 0.539016C33.0847 1.09708 32.1476 2.2932 31.8495 3.63693C31.5076 5.1816 31.5324 9.78323 32.0952 11.2393C33.5428 14.9848 39.9167 15.0477 41.4804 11.4384C42.1356 9.92512 42.1261 6.13011 41.968 4.43021C41.8147 2.77603 40.7985 1.14279 39.2348 0.51235V0.513303ZM39.2586 9.98226C38.5787 12.1631 34.5818 12.0402 34.2713 9.44801C34.1637 8.54806 34.1532 4.94447 34.4018 4.19023C34.6332 3.48932 35.4065 2.81126 36.1388 2.69603C37.7397 2.44462 39.2005 3.10553 39.3872 4.82067C39.491 5.77585 39.5138 9.16041 39.2577 9.98226H39.2586Z" fill="#F3F3F3"/>
<path d="M74.806 0.250461C74.586 0.19237 73.9432 0.0361883 73.7556 0.0161895C73.2756 -0.0342837 72.7233 0.0533302 72.2328 0.0161895C71.8233 0.281888 71.31 0.292364 70.8358 0.473305C69.5959 0.947563 68.6607 1.97607 68.2836 3.24266C67.8922 4.55687 67.916 8.37379 68.0464 9.83656C68.5293 15.2467 77.0126 15.6657 78.1658 10.3451C78.2049 10.167 78.3906 9.31564 78.1801 9.31564H75.8012C75.5803 9.55658 75.6203 9.92608 75.486 10.2346C74.6489 12.1688 70.8367 11.946 70.6101 9.46134C70.5082 8.34522 70.4749 5.50634 70.6225 4.43593C70.9682 1.92941 75.6945 2.03131 75.6584 4.75972H78.323C78.1306 2.51699 77.043 0.840902 74.8051 0.248557L74.806 0.250461Z" fill="#F3F3F3"/>
<path d="M101.974 17.858H99.6903C99.6798 17.858 99.5474 17.9904 99.5474 17.9999V26.5889L94.361 17.858H91.9821C91.9717 17.858 91.8393 17.9904 91.8393 17.9999V31.381C91.8393 31.3915 91.9717 31.5229 91.9821 31.5229H94.4087V22.792L99.595 31.5229H102.117V17.9989C102.117 17.9885 101.984 17.857 101.974 17.857V17.858Z" fill="#F3F3F3"/>
<path d="M26.6879 8.07476C27.7041 7.62336 28.3955 7.43099 28.9478 6.34343C30.183 3.91024 29.0383 0.645676 26.1242 0.300934H19.415V13.8716H21.9844V8.27189H23.5548C24.7014 10.1042 25.8356 11.9593 26.8384 13.8716H29.7887L26.5537 8.22142C26.5279 8.01 26.5898 8.11856 26.6889 8.07476H26.6879ZM25.8385 5.71014H21.9844V2.86269H25.7432C25.7689 2.86269 26.1423 3.02934 26.2051 3.06648C26.8946 3.47979 27.0251 4.49021 26.5956 5.13493C26.4975 5.28254 25.9699 5.70918 25.8394 5.70918L25.8385 5.71014Z" fill="#F3F3F3"/>
<path d="M50.2018 0.300934H43.9679V13.8716H49.9161C51.2779 13.8716 53.0178 12.6983 53.632 11.5031C54.5015 9.80894 54.5063 4.73972 53.7882 2.98839C53.2825 1.75609 51.5722 0.300934 50.2018 0.300934ZM51.5865 9.36897C51.5122 10.1108 51.0884 10.6498 50.4427 10.9813C50.337 11.0355 49.6742 11.3098 49.6304 11.3098H46.5372V2.86364H49.8208C49.9523 2.86364 50.6732 3.26552 50.8227 3.38361C51.1398 3.63407 51.4569 4.07214 51.5398 4.47212C51.7093 5.29397 51.6779 8.45854 51.5865 9.36992V9.36897Z" fill="#F3F3F3"/>
<path d="M87.7462 22.3187H90.4108C89.9651 16.4266 80.6352 16.3666 80.1295 22.2682C80.0086 23.6748 79.9867 27.4117 80.3752 28.6735C81.6961 32.959 88.6262 33.0228 90.0565 28.9411C90.1556 28.6583 90.4118 27.8336 90.4118 27.5869V23.9329H85.273V26.4956H87.8424C88.3814 29.9201 82.9951 30.4334 82.6989 27.2117C82.5941 26.0708 82.5894 23.6929 82.7036 22.5587C82.977 19.8455 87.2919 19.6941 87.7462 22.3206V22.3187Z" fill="#F3F3F3"/>
<path d="M44.6345 31.5238H53.7711V28.9611H47.2048V25.9242H52.3436V23.3615H47.2048V20.5616C47.2048 20.5512 47.3372 20.4197 47.3477 20.4197H53.772V17.9523H44.6354V31.5229L44.6345 31.5238Z" fill="#F3F3F3"/>
<path d="M60.0536 23.1234C59.685 22.9682 59.1241 22.6796 59.0251 22.2511C58.5698 20.2797 61.6487 19.855 62.5696 21.2778C62.6877 21.4606 62.6915 21.7482 62.7163 21.7482H65.5713C65.0818 16.02 55.0291 16.7866 56.5766 23.0777C57.3566 26.248 60.3583 25.6261 62.5163 26.7394C63.8591 27.4327 63.4381 29.1287 61.8992 29.3316C60.4688 29.5201 59.1441 28.9659 58.9098 27.4412H56.2452C56.4481 31.0953 60.0031 32.64 63.2686 31.6457C65.6123 30.9324 66.3027 28.5069 65.598 26.3232C64.7647 23.7386 62.0715 23.9719 60.0536 23.1215V23.1234Z" fill="#F3F3F3"/>
<path d="M9.89751 9.69657H13.4668C17.3323 9.69657 18.8027 4.33974 16.4619 1.6799C15.9752 1.1266 14.5734 0.300934 13.8477 0.300934H7.32909V13.8716H9.89846V9.69561L9.89751 9.69657ZM9.89751 2.86364H13.3716C13.4906 2.86364 14.1334 3.19029 14.2687 3.2979C15.3515 4.15785 15.1677 6.28725 13.8973 6.89864C13.8173 6.93673 13.2192 7.13386 13.1821 7.13386H9.89846V2.86364H9.89751Z" fill="#F3F3F3"/>
<path d="M63.5724 0.205702C63.461 2.90649 63.8048 5.62633 63.6724 8.32522C63.6172 9.45944 63.5838 10.5137 62.461 11.1031C60.8488 11.9498 58.5099 11.1717 58.4689 9.1585L58.5279 0.206654H55.9586V9.93369C55.9586 11.3384 57.3585 13.0164 58.6251 13.5382C61.9477 14.9077 66.237 13.2402 66.237 9.26992V0.205702C65.3371 0.124754 64.4724 0.125707 63.5715 0.205702H63.5724Z" fill="#F3F3F3"/>
<path d="M68.0455 20.4207H71.8519V28.9621H68.0455V31.5248H78.3239V29.1049C78.3239 29.0945 78.1915 28.963 78.1811 28.963H74.5651C74.5546 28.963 74.4222 28.8307 74.4222 28.8211V20.5645C74.4222 20.554 74.5546 20.4226 74.5651 20.4226H78.3239V17.8599H68.0455V20.4226V20.4207Z" fill="#F3F3F3"/>
<path d="M80.1324 2.76841H83.9388V13.8725H86.6034V2.76841H90.4108V0.300934H80.1324V2.76841Z" fill="#F3F3F3"/>
<path d="M37.9235 17.9456H31.6895V31.5162H37.6378C38.9996 31.5162 40.7395 30.343 41.3537 29.1478C42.2232 27.4536 42.228 22.3844 41.5099 20.6331C41.0042 19.4008 39.2939 17.9456 37.9235 17.9456ZM39.3081 27.0136C39.2339 27.7555 38.8101 28.2945 38.1644 28.6259C38.0587 28.6802 37.3959 28.9545 37.3521 28.9545H34.2589V20.5083H37.5425C37.6739 20.5083 38.3949 20.9102 38.5444 21.0283C38.8615 21.2787 39.1786 21.7168 39.2615 22.1168C39.431 22.9386 39.3996 26.1032 39.3081 27.0146V27.0136Z" fill="#F3F3F3"/>
</g>
</svg>
