<svg width="162.461" height="38.2727" viewBox="0 0 162.461 38.2727" fill="none" xmlns="http://www.w3.org/2000/svg">
<g id="Logos/Desktop/SVA+MM&amp;AI">
<g id="Layer_1" clip-path="url(#clip0_0_12)">
<path id="Union" d="M14.9551 3.58256C16.2413 3.81026 17.0912 4.89004 17.5312 6.05619C18.5158 5.78248 19.4573 5.91237 19.6758 7.04154C19.7967 7.14551 21.3749 6.31161 21.6641 6.19779C22.9996 5.66547 25.3927 4.9153 24.793 7.33647L23.5068 9.18022C24.5623 9.09713 25.5564 8.59238 26.5996 8.99858C27.6797 9.42032 29.1784 11.8638 27.8799 12.7808L27.2637 13.0484C28.2853 13.5869 28.8277 14.5648 29.5508 15.4048C30.2585 16.2264 31.0893 16.9991 31.6709 17.9253L31.6582 17.9224C32.6121 19.4395 31.332 20.2768 29.9072 20.3814C30.0212 21.2089 30.7257 21.8735 30.8428 22.7163C31.0212 24.0026 30.4548 24.3749 29.6855 25.2027C29.5686 25.3288 29.5075 25.5231 29.3906 25.6431C28.8583 26.197 27.9442 26.0737 27.2549 26.1968C27.1656 26.2861 27.6706 26.8681 27.7383 27.0035C28.3042 28.1112 27.4427 29.5393 26.252 29.7271C25.9227 29.7794 25.5439 29.6254 25.3008 29.9546C25.1994 30.9883 25.7254 31.8283 25.0088 32.7574C24.4857 33.4343 23.6641 33.4592 23.0518 32.8687C22.8087 32.6348 22.2084 31.4192 21.8545 31.5113C21.5837 31.579 20.8176 33.2689 20.5684 33.6197C20.1099 34.2658 19.4696 34.6189 18.6758 34.6744C17.0203 34.7913 16.1251 33.9578 15.6143 32.4624C15.0788 33.0533 14.6137 33.5488 13.749 33.5396C12.5367 33.5242 11.8565 32.6747 11.8564 31.5054C10.8318 31.8716 9.89943 32.5206 8.83789 32.7945C7.10239 33.2407 6.0531 32.7085 6.76074 30.7915L7.29004 30.0308C6.57928 29.9323 5.91773 29.9479 5.22852 29.6988C4.35463 29.3818 2.88081 28.2557 2.68066 27.3111C2.41604 26.0464 3.7294 24.8124 4.85254 24.5015C4.78793 23.4154 3.90233 23.5964 3.18848 23.3443C2.20992 22.9966 1.24311 21.6273 0.673828 20.7749C0.409215 20.3811 0.144773 20.0272 -0.00292969 19.5718V18.8365C0.338642 17.9225 1.06819 17.5807 1.98828 17.4361C1.65595 16.3314 0.990498 15.1036 1.39355 13.9312C1.73511 12.9435 3.1723 12.7585 4.01855 12.4292C4.11995 12.1185 3.93222 11.8447 3.98145 11.5093C4.08922 10.7802 5.31399 9.95225 6.01562 9.94584C6.63719 9.93969 7.13263 10.602 7.58496 10.9497C7.64651 9.56808 7.31764 8.08098 7.43457 6.70854C7.57016 5.14895 8.73284 5.39863 9.68359 6.16166C9.92348 6.35541 10.9076 7.48331 11.0869 7.46928C12.1486 6.43226 12.4995 4.24691 14.0166 3.71147L14.5117 3.58256H14.9551ZM22.3623 19.7906C20.5191 19.6306 19.4785 20.7847 19.377 22.5572C19.2296 25.1079 21.6978 26.4432 23.7871 25.0494V25.0464C23.8825 24.7818 23.5804 24.0312 23.4111 23.8619C23.208 23.6588 22.5587 24.1196 22.2109 24.1412C20.8297 24.2237 20.6666 21.698 21.7188 21.2886C22.4173 21.0178 23.0149 21.6209 23.3564 21.4517C23.5625 21.3465 23.7657 20.7222 23.7227 20.4947C23.6455 20.0917 22.7316 19.8214 22.3623 19.7906ZM10.6748 20.0552C10.2101 19.689 9.68065 19.7812 9.15137 19.9566C9.06845 20.0704 9.06894 20.206 9.05664 20.3413C8.9582 21.5106 8.95205 23.7533 9.05664 24.9165C9.08741 25.252 9.12742 25.3851 9.48438 25.4497C9.98602 25.5389 10.8322 25.5781 10.8291 24.9136C10.8229 24.1505 10.6533 23.2547 10.6133 22.4732C10.6071 22.3474 10.604 22.307 10.7178 22.2271C11.124 22.8979 11.8657 23.6802 12.1826 24.3726C12.6101 25.3016 12.1676 25.5911 13.5947 25.4712C14.0071 25.4343 14.0413 25.4 14.0752 24.9908V24.9878C14.1983 23.4892 13.9895 21.8089 14.1279 20.2857C14.0264 19.9841 13.9952 19.9007 13.666 19.8638C13.2875 19.8238 12.4447 19.7414 12.377 20.1968C12.2817 20.8429 12.4476 21.698 12.377 22.3687C11.7554 21.8456 11.2564 20.5138 10.6748 20.0552ZM19.4883 20.2427C19.5191 19.6827 18.0567 19.7907 17.8105 20.0122C17.5399 20.2594 17.2235 21.6052 17.0205 22.0025C16.6143 21.6425 16.423 20.169 16.0322 19.9351C15.8722 19.8366 15.0568 19.8267 14.8506 19.8667C14.4198 19.9498 14.6413 20.3598 14.749 20.6275C15.0353 21.3445 15.8908 22.5413 16.0293 23.1783C16.137 23.6799 15.9185 25.0988 16.2139 25.3511C16.4082 25.5172 17.6416 25.5352 17.7646 25.3413C17.8969 24.4154 17.5648 23.8092 18.0137 22.8833H18.0107C18.2846 22.3172 19.4635 20.7444 19.4883 20.2427ZM10.6689 13.2574C9.90579 13.3128 9.0289 13.6698 8.75195 14.4361C8.44428 15.2915 8.67773 16.3005 9.55762 16.6822C9.92073 16.8391 11.7147 17.061 11.167 17.7349C10.6622 18.3622 9.33596 17.5166 8.98828 17.6919C8.61941 17.877 8.69677 18.8238 9.1582 19.0699C10.2076 19.6329 12.7763 19.4207 13.0225 17.9683C13.207 16.8791 12.8932 16.2296 11.8809 15.8296C11.5293 15.6911 9.79505 15.4509 10.5303 14.8111C11.0995 14.316 12.1237 15.0599 12.4531 14.8941C12.65 14.7956 12.8012 14.033 12.709 13.8267C12.5028 13.3713 11.1246 13.2236 10.6689 13.2574ZM18.6045 13.5347C18.3768 13.2455 17.1551 13.2609 16.9551 13.5747L16.0264 18.0982L15.0625 13.6822C14.9579 13.2575 13.6599 13.3193 13.5029 13.4732C13.3555 13.6211 13.4847 14.067 13.5186 14.2701C13.7832 15.8239 14.2811 17.4365 14.6318 18.9781C14.8749 19.3843 16.3742 19.3352 16.8389 19.2798C17.1064 19.249 17.2848 19.1287 17.3955 18.8765C17.5585 18.5012 17.6906 17.7474 17.8105 17.3042C18.0783 16.3257 18.457 15.1068 18.6201 14.1314C18.654 13.9406 18.7398 13.707 18.6045 13.5347ZM22.2725 13.4693C21.9971 13.3281 20.2865 13.3252 20.0146 13.4634C19.8671 13.5403 19.7346 13.7216 19.6914 13.8785C19.4391 15.3955 18.6849 17.0454 18.4541 18.5347C18.3833 18.9932 18.3864 19.1993 18.9062 19.2701C19.1032 19.2978 19.7468 19.3105 19.916 19.2613C20.362 19.1319 20.1867 18.4237 20.4082 18.1314C20.4893 18.0792 21.398 18.0728 21.5557 18.0943C22.1311 18.1712 21.8483 19.0089 22.3438 19.2212C22.5501 19.3073 23.4877 19.3255 23.6328 19.1841C23.7128 19.1041 23.7315 18.9287 23.71 18.8179C23.3099 17.2947 23.0702 15.7157 22.6455 14.2017C22.5717 13.9432 22.537 13.6077 22.2725 13.4693ZM21.0762 14.4849C21.1895 14.4761 21.1895 14.6692 21.2109 14.7525C21.2756 15.0171 21.6509 16.8266 21.5801 16.9097H21.584C21.4147 16.9805 20.676 17.0606 20.6299 16.8667L21.0762 14.4849Z" fill="#F3F3F3"/>
</g>
<path id="|" d="M38.7273 0V38.2727H38V0H38.7273Z" fill="#F3F3F3"/>
<g id="Logos/Desktop/MM&amp;AI">
<path d="M44.7273 35.1364V7.75351H49.2987V3.18208H53.8701V7.75351H49.2987V35.1364H44.7273ZM63.013 35.1364V7.75351H67.5387V35.1364H63.013ZM53.8701 16.8507V7.75351H58.4416V16.8507H53.8701ZM58.4416 7.75351V3.18208H63.013V7.75351H58.4416Z" fill="#F3F3F3"/>
<path d="M70.7433 35.1364V7.75351H75.3148V3.18208H79.8862V7.75351H75.3148V35.1364H70.7433ZM89.0291 35.1364V7.75351H93.5548V35.1364H89.0291ZM79.8862 16.8507V7.75351H84.4576V16.8507H79.8862ZM84.4576 7.75351V3.18208H89.0291V7.75351H84.4576Z" fill="#F3F3F3"/>
<path d="M101.285 7.70779V3.13636H110.428V7.70779H101.285ZM96.7594 30.5192V21.4221H101.285V30.5192H96.7594ZM101.285 35.0907V30.5192H110.428V35.0907H101.285ZM101.285 21.4221V16.8507H105.857V21.4221H101.285ZM105.857 25.9478V21.4221H110.428V25.9478H105.857ZM110.428 30.5192V25.9478H114.999V30.5192H110.428ZM114.999 35.0907V30.5192H119.571V35.0907H114.999ZM96.7594 16.8507V7.70779H101.285V16.8507H96.7594ZM114.999 25.9478V21.4221H119.571V25.9478H114.999ZM110.428 16.8507V7.70779H114.999V16.8507H110.428Z" fill="#F3F3F3"/>
<path d="M122.775 35.1364V3.18208H141.015V7.75351H127.301V21.4221H131.873V25.9935H127.301V35.1364H122.775ZM141.015 35.1364V21.4221H131.873V16.8507H141.015V7.75351H145.541V35.1364H141.015Z" fill="#F3F3F3"/>
<path d="M148.747 35.1364V30.5649H153.318V7.75351H148.747V3.18208H162.461V7.75351H157.89V30.5649H162.461V35.1364H148.747Z" fill="#F3F3F3"/>
</g>
</g>
</svg>
