<svg viewBox="0 0 139.034 32.0029" fill="none" xmlns="http://www.w3.org/2000/svg">
<g id="Logos/Desktop/WIFC_Wordmark_[Short]" opacity="0.5">
<path id="Union" d="M132.267 32.0029H116.9C119.183 31.2663 121.37 30.2432 123.31 28.8301C126.976 26.1601 129.487 22.2865 130.733 17.9365H118.684C118.437 18.3132 118.223 18.7101 117.96 19.0801C116.707 20.8433 114.943 21.9533 112.78 22.2334C108.544 22.7801 105.616 20.4296 106.583 16.0029C107.493 11.8298 111.653 9.0571 115.873 9.78027C118.163 10.1736 119.63 11.8366 119.5 14.2031H131.583C131.806 13.6099 131.963 12.9434 132.06 12.3135C132.713 8.01686 130.944 4.22643 127.457 1.75977C126.42 1.02643 125.276 0.466667 124.1 0H132.267V32.0029ZM0.0664062 32H0V0H4.86621L0.0664062 32ZM23.5664 19.7998L21.2666 32H17.0332L22.5498 19.7998H23.5664ZM44.7334 32H38.2334L54.1338 0H55.0332L44.7334 32ZM58.6338 32H57.333L67.5996 0H68.9336L58.6338 32ZM109.137 0C102.45 2.09667 96.7335 7.1803 94.6602 13.9736C93.2969 18.4336 93.4567 24.0204 96.3066 27.877H96.3096C97.7329 29.8036 99.7432 31.1567 101.97 32H71.1367L74.1396 22.7031L90.9336 22.6963L94.1035 12.7666H77.3701L78.1602 10.3633H95.7334L99.1035 0H109.137ZM14.9004 18.5996H13.7998L17.4668 0H24.333L14.9004 18.5996ZM32.9004 18.5996H31.7666L34.0996 0H41.0996L32.9004 18.5996Z" fill="var(--fill-0, white)"/>
</g>
</svg>
