<svg viewBox="0 0 116.059 34.5459" fill="none" xmlns="http://www.w3.org/2000/svg">
<g id="Logos/Desktop/MTA_spec" opacity="0.5">
<path id="Union" d="M72.2588 10.3184C73.6678 10.3184 74.9252 10.6746 76.0312 11.3867C77.1373 12.0988 78.005 13.125 78.6338 14.4658C79.2701 15.8067 79.5879 17.4204 79.5879 19.3066C79.5879 21.193 79.2733 22.8107 78.6445 24.1592C78.0158 25.5 77.1521 26.5345 76.0537 27.2617C74.9554 27.9812 73.7018 28.3408 72.293 28.3408C71.2324 28.3408 70.3647 28.1627 69.6904 27.8066C69.0238 27.4506 68.5008 27.0339 68.1221 26.5566C67.7434 26.0794 67.4516 25.6553 67.2471 25.2842H67.043V34.5459H63.6445V10.5459H66.9629V13.375H67.2471C67.444 13.0114 67.7284 12.5906 68.0996 12.1133C68.4708 11.6362 68.9857 11.2193 69.6445 10.8633C70.3036 10.4996 71.1755 10.3184 72.2588 10.3184ZM13.1201 0C21.9521 0 29.1201 7.168 29.1201 16C29.1201 24.832 21.9521 32 13.1201 32C7.9298 32 3.296 29.5234 0.416016 25.6963L2.15039 25.3438C2.15039 25.3007 2.15058 19.7503 2.09961 19.1172C2.09961 18.5093 1.7984 15.0088 1.8623 14.4258H2.0293L4.12793 24.9854L7.06543 24.4668L8.77441 14.6748H8.9668C9.0564 15.2764 8.81348 18.1186 8.81348 18.7266C8.76255 19.3574 8.76172 24.1167 8.76172 24.166L11.7383 23.6484V8.92773L7.0918 8.12207L5.78613 17.1455C5.74147 17.1455 4.47561 7.73211 4.46777 7.67383L0 6.89941V6.84766C2.89279 2.71335 7.68021 3.0864e-05 13.1201 0ZM36.7422 31.5H33.708L41.208 3.63672H44.2422L36.7422 31.5ZM53.2861 10.3184C55.1724 10.3184 56.6569 10.7277 57.7402 11.5459C58.8235 12.3565 59.5402 13.443 59.8887 14.8066L56.8086 15.3525C56.6798 14.9587 56.4755 14.5835 56.1953 14.2275C55.9226 13.8715 55.5508 13.5798 55.0811 13.3525C54.6114 13.1254 54.0246 13.0117 53.3203 13.0117C52.3582 13.0117 51.5551 13.2274 50.9111 13.6592C50.2672 14.0834 49.9454 14.6325 49.9453 15.3066C49.9453 15.89 50.161 16.3598 50.5928 16.7158C51.0246 17.0719 51.7215 17.3636 52.6836 17.5908L55.4561 18.2275C57.062 18.5987 58.259 19.1707 59.0469 19.9434C59.8347 20.716 60.2294 21.7195 60.2295 22.9541C60.2295 23.9995 59.9263 24.9318 59.3203 25.75C58.7218 26.5606 57.8844 27.1971 56.8086 27.6592C55.7404 28.1213 54.5018 28.3525 53.0928 28.3525C51.1383 28.3525 49.5434 27.9358 48.3086 27.1025C47.0737 26.2616 46.3164 25.0679 46.0361 23.5225L49.3203 23.0225C49.5248 23.8784 49.9449 24.5264 50.5811 24.9658C51.2174 25.3976 52.0476 25.6133 53.0703 25.6133C54.1836 25.6132 55.0737 25.3828 55.7402 24.9209C56.4069 24.4512 56.7402 23.8783 56.7402 23.2041C56.7401 22.6588 56.5359 22.2002 56.127 21.8291C55.7254 21.458 55.1076 21.1776 54.2744 20.9883L51.3203 20.3408C49.6915 19.9696 48.4864 19.379 47.7061 18.5684C46.9334 17.7578 46.5469 16.7307 46.5469 15.4883C46.5469 14.4581 46.8354 13.5568 47.4111 12.7842C47.9868 12.0116 48.782 11.4093 49.7969 10.9775C50.812 10.5381 51.9755 10.3184 53.2861 10.3184ZM90.3594 10.3184C91.3441 10.3184 92.2985 10.4809 93.2227 10.8066C94.1468 11.1324 94.9761 11.644 95.7109 12.3408C96.4458 13.0378 97.026 13.943 97.4502 15.0566C97.8744 16.1627 98.0859 17.5075 98.0859 19.0908V20.2959H85.6826C85.7089 21.3596 85.9102 22.2725 86.291 23.0342C86.7077 23.8523 87.287 24.4774 88.0293 24.9092C88.7717 25.3334 89.6394 25.5459 90.6318 25.5459C91.2757 25.5459 91.8633 25.4543 92.3936 25.2725C92.9237 25.0831 93.3823 24.8027 93.7686 24.4316C94.1548 24.0605 94.4498 23.6019 94.6543 23.0566L97.8701 23.6367C97.6125 24.5834 97.1509 25.413 96.4844 26.125C95.8253 26.8295 94.9951 27.3785 93.9951 27.7725C93.0027 28.1588 91.8703 28.3525 90.5977 28.3525C88.878 28.3525 87.3967 27.9848 86.1543 27.25C84.9195 26.5076 83.9652 25.4658 83.291 24.125C82.6244 22.7766 82.2911 21.1972 82.291 19.3867C82.291 17.5988 82.6244 16.0228 83.291 14.6592C83.9653 13.2955 84.9048 12.231 86.1094 11.4658C87.3214 10.7008 88.7383 10.3184 90.3594 10.3184ZM108.854 10.3184C110.18 10.3184 111.362 10.5644 112.399 11.0566C113.437 11.5415 114.275 12.2238 114.911 13.1025C115.555 13.9812 115.937 15.0075 116.059 16.1816H112.752C112.57 15.3635 112.153 14.6592 111.502 14.0684C110.858 13.4775 109.994 13.1816 108.911 13.1816C107.964 13.1817 107.135 13.4318 106.423 13.9316C105.718 14.4241 105.168 15.1292 104.774 16.0459C104.381 16.9548 104.184 18.0304 104.184 19.2725C104.184 20.5452 104.377 21.6441 104.764 22.5684C105.15 23.4924 105.695 24.2083 106.399 24.7158C107.112 25.2234 107.949 25.4775 108.911 25.4775C109.555 25.4775 110.138 25.3598 110.661 25.125C111.191 24.8826 111.635 24.5378 111.991 24.0908C112.355 23.644 112.608 23.1061 112.752 22.4775H116.059C115.937 23.6061 115.571 24.6138 114.957 25.5C114.343 26.3862 113.521 27.0833 112.491 27.5908C111.469 28.0984 110.267 28.3525 108.889 28.3525C107.199 28.3525 105.744 27.9693 104.524 27.2041C103.313 26.4315 102.381 25.3674 101.729 24.0117C101.078 22.6557 100.752 21.1024 100.752 19.3525C100.752 17.5799 101.085 16.0152 101.752 14.6592C102.419 13.2955 103.358 12.231 104.57 11.4658C105.782 10.7007 107.211 10.3184 108.854 10.3184ZM71.5312 13.2041C70.5464 13.2041 69.7131 13.4583 69.0312 13.9658C68.357 14.4734 67.8456 15.1817 67.4971 16.0908C67.1486 16.9998 66.9746 18.0605 66.9746 19.2725C66.9746 20.4997 67.1527 21.5758 67.5088 22.5C67.8648 23.4242 68.3795 24.1482 69.0537 24.6709C69.7279 25.186 70.554 25.4433 71.5312 25.4434C72.5464 25.4434 73.3953 25.1746 74.0771 24.6367C74.7588 24.0914 75.2736 23.3525 75.6221 22.4209C75.9781 21.4891 76.1562 20.4391 76.1562 19.2725C76.1562 18.1212 75.9821 17.0874 75.6338 16.1709C75.2929 15.2542 74.7773 14.5303 74.0879 14C73.4061 13.4698 72.5539 13.2041 71.5312 13.2041ZM12.5186 12.7998L14.7588 13.0557V23.1035L17.5107 22.6562V13.248L19.3027 13.4404V10.2402L12.5186 9.02441V12.7998ZM18.7266 22.4004L20.8389 22.0801L21.0303 20.5439L22.5029 20.3516L22.6943 21.7598L24.3584 21.4404L22.7588 10.8164L20.7744 10.4961L18.7266 22.4004ZM22.1826 17.9199L21.3506 17.9844L21.6709 14.4639H21.8623L22.1826 17.9199ZM90.3818 13.125C89.4274 13.125 88.5939 13.3595 87.8818 13.8291C87.1773 14.2912 86.6315 14.8975 86.2451 15.6475C85.9129 16.2987 85.7273 16.9997 85.6865 17.75H94.7568C94.7568 16.8561 94.5746 16.0644 94.2109 15.375C93.8473 14.6781 93.3358 14.129 92.6768 13.7275C92.0253 13.3261 91.2605 13.125 90.3818 13.125Z" fill="var(--fill-0, white)"/>
</g>
</svg>
