<svg preserveAspectRatio="none" width="100%" height="100%" overflow="visible" style="display: block;" viewBox="0 0 139.034 32" fill="none" xmlns="http://www.w3.org/2000/svg">
<g id="Logos/Desktop/Pienso" opacity="0.5" clip-path="url(#clip0_0_108)">
<path id="Vector" d="M49.8223 5.10305C48.3709 4.27404 46.7561 3.86874 44.978 3.86874C43.1999 3.86874 41.4944 4.27404 40.0429 5.06621C38.5733 5.85838 37.4303 6.98215 36.5957 8.43754C35.761 9.89292 35.3437 11.5325 35.3437 13.3932V28.2418H39.2265V20.9096C39.6982 21.2965 40.2244 21.6465 40.7868 21.9229C42.075 22.5861 43.5265 22.9177 45.1232 22.9177C46.7198 22.9177 48.4797 22.5124 49.8949 21.6834C51.3283 20.8543 52.435 19.7306 53.2515 18.2568C54.068 16.8014 54.4671 15.1802 54.4671 13.3932C54.4671 11.6062 54.0498 9.94819 53.2333 8.51123C52.4169 7.07427 51.2738 5.93207 49.8223 5.10305ZM48.9333 17.5199C47.881 18.6068 46.5746 19.141 44.978 19.141C43.3814 19.141 41.9843 18.6068 40.932 17.5199C39.8796 16.4329 39.3535 15.0512 39.3535 13.3932C39.3535 11.7352 39.8796 10.3535 40.932 9.26655C41.9843 8.17962 43.3451 7.64537 44.978 7.64537C46.6109 7.64537 47.8991 8.17962 48.9333 9.26655C49.9856 10.3535 50.5118 11.7352 50.5118 13.3932C50.5118 15.0512 49.9856 16.4329 48.9333 17.5199Z" fill="var(--fill-0, #F3F3F3)"/>
<path id="Vector_2" d="M58.8397 3.33449C58.0958 3.33449 57.4971 3.57398 57.0254 4.03454C56.5536 4.51353 56.3178 5.08463 56.3178 5.78469C56.3178 6.48474 56.5536 7.07427 57.0254 7.53483C57.4971 8.01382 58.114 8.23489 58.8397 8.23489C59.5655 8.23489 60.1824 7.99539 60.6541 7.53483C61.1258 7.05584 61.3617 6.48474 61.3617 5.78469C61.3617 5.08463 61.1258 4.49511 60.6541 4.03454C60.1824 3.55556 59.5655 3.33449 58.8397 3.33449Z" fill="var(--fill-0, #F3F3F3)"/>
<path id="Vector_3" d="M60.763 10.1324H56.9165V28.2418H60.763V10.1324Z" fill="var(--fill-0, #F3F3F3)"/>
<path id="Vector_4" d="M77.5639 10.8877C76.2213 10.0587 74.6609 9.635 72.901 9.635C71.1411 9.635 69.5082 10.0403 68.1293 10.8509C66.7503 11.6615 65.6799 12.7853 64.8997 14.2222C64.1195 15.6592 63.7385 17.2988 63.7385 19.1595C63.7385 21.0202 64.1377 22.715 64.936 24.1704C65.7343 25.6258 66.8411 26.768 68.2744 27.5602C69.7077 28.3523 71.3044 28.7576 73.0825 28.7576C74.8605 28.7576 76.8926 28.2234 78.3622 27.1733C79.8319 26.1232 80.9205 24.6862 81.61 22.8808H77.5458C76.566 24.4836 75.042 25.2758 72.9736 25.2758C70.9052 25.2758 70.0525 24.7415 69.0546 23.6546C68.3651 22.8993 67.9297 21.9597 67.712 20.8359H81.6825C81.7551 20.3201 81.7914 19.7674 81.7914 19.1779C81.7914 17.3909 81.4285 15.7697 80.6846 14.3328C79.9407 12.8774 78.9066 11.7352 77.5639 10.9062V10.8877ZM69.0364 14.7749C70.0162 13.688 71.3044 13.1537 72.901 13.1537C74.4977 13.1537 75.6951 13.688 76.6386 14.7749C77.3099 15.5302 77.7091 16.4698 77.8724 17.5567H67.6757C67.8934 16.4514 68.3288 15.5118 69.0001 14.7749H69.0364Z" fill="var(--fill-0, #F3F3F3)"/>
<path id="Vector_5" d="M96.6692 10.6298C95.4354 9.96661 94.0746 9.635 92.5506 9.635C91.0265 9.635 89.6113 9.96661 88.3957 10.6114C87.1619 11.2562 86.2184 12.1957 85.529 13.4116C84.8395 14.6275 84.4948 16.0461 84.4948 17.6304V28.2418H88.4501V17.7041C88.4501 16.4514 88.8311 15.4197 89.575 14.6275C90.3189 13.8353 91.3168 13.4301 92.5506 13.4301C93.7843 13.4301 94.7278 13.8169 95.4898 14.6091C96.27 15.4013 96.651 16.4329 96.651 17.7041V28.2418H100.606V17.6304C100.606 16.0276 100.262 14.6275 99.554 13.4301C98.8464 12.2142 97.8848 11.293 96.6692 10.6298Z" fill="var(--fill-0, #F3F3F3)"/>
<path id="Vector_6" d="M112.672 17.5567L109.642 17.1883C108.717 17.0961 108.045 16.8751 107.664 16.5435C107.265 16.2119 107.084 15.7329 107.084 15.1249C107.084 14.517 107.374 13.9275 107.954 13.559C108.535 13.1906 109.388 13.0248 110.513 13.0248C112.726 13.0248 113.887 13.8353 114.014 15.4565H117.788C117.77 13.6695 117.081 12.251 115.756 11.2009C114.432 10.1508 112.708 9.61658 110.585 9.61658C108.462 9.61658 106.539 10.1324 105.233 11.1457C103.927 12.1589 103.273 13.5406 103.273 15.2723C103.273 17.004 103.745 18.0541 104.689 18.9937C105.632 19.9332 106.957 20.5227 108.698 20.7254L112.019 21.1307C112.871 21.2228 113.47 21.4254 113.797 21.7202C114.123 22.015 114.305 22.4571 114.305 23.0098C114.305 23.5625 114.014 24.2994 113.416 24.7047C112.817 25.11 111.946 25.3126 110.803 25.3126C109.66 25.3126 108.571 25.11 107.954 24.7231C107.338 24.3178 107.011 23.7098 106.957 22.8993H103.183C103.201 24.7415 103.89 26.16 105.233 27.1917C106.576 28.2234 108.426 28.7392 110.785 28.7392C113.144 28.7392 114.867 28.205 116.174 27.1364C117.48 26.0679 118.133 24.6862 118.133 22.9729C118.133 19.7858 116.319 17.9804 112.708 17.5383L112.672 17.5567Z" fill="var(--fill-0, #F3F3F3)"/>
<path id="Vector_7" d="M137.801 14.3143C136.984 12.859 135.841 11.6983 134.39 10.8693C132.938 10.0403 131.342 9.61658 129.582 9.61658C127.822 9.61658 126.225 10.0403 124.774 10.8693C123.322 11.6983 122.179 12.8405 121.363 14.3143C120.546 15.7697 120.129 17.3909 120.129 19.1779C120.129 20.9649 120.546 22.5492 121.363 23.9862C122.179 25.4416 123.322 26.5838 124.774 27.4312C126.225 28.2786 127.822 28.7024 129.582 28.7392C131.342 28.7208 132.938 28.2786 134.39 27.4312C135.841 26.5838 136.984 25.4416 137.801 23.9862C138.617 22.5308 139.034 20.928 139.034 19.1779C139.034 17.4277 138.617 15.7697 137.801 14.3143ZM133.501 23.3782C132.485 24.4836 131.178 25.0178 129.582 25.0178C127.985 25.0178 126.679 24.4652 125.663 23.3782C124.647 22.2729 124.12 20.8912 124.12 19.1963C124.12 17.5014 124.628 16.0829 125.663 14.9775C126.679 13.8722 127.985 13.3379 129.582 13.3379C131.178 13.3379 132.485 13.8906 133.501 14.9775C134.517 16.0829 135.043 17.483 135.043 19.1963C135.043 20.9096 134.535 22.2729 133.501 23.3782Z" fill="var(--fill-0, #F3F3F3)"/>
<path id="Vector_8" d="M5.08021 4.7346L1.8325 6.65055C0.689457 7.31376 0 8.54807 0 9.85607V22.1439C0 23.4704 0.689457 24.7047 1.8325 25.3679L6.85828 28.3155V11.7352L11.9385 8.75072L5.08021 4.7346Z" fill="var(--fill-0, #F3F3F3)"/>
<path id="Vector_9" d="M26.4352 6.65055L15.9482 0.497409C14.8052 -0.165803 13.4081 -0.165803 12.2832 0.497409L7.25744 3.44502L21.3913 11.7352V17.7041L28.2496 13.688V9.8745C28.2496 8.54807 27.5601 7.31376 26.4171 6.65055H26.4352Z" fill="var(--fill-0, #F3F3F3)"/>
<path id="Vector_10" d="M9.03552 21.5544V29.5866L12.2832 31.5026C13.4263 32.1658 14.8052 32.1658 15.9482 31.5026L26.4352 25.3495C27.5783 24.6862 28.2677 23.4519 28.2677 22.1255V16.2303L14.1339 24.5204L9.03552 21.536V21.5544Z" fill="var(--fill-0, #F3F3F3)"/>
</g>
<defs>
<clipPath id="clip0_0_108">
<rect width="139.034" height="32" fill="white"/>
</clipPath>
</defs>
</svg>
